<mxfile host="app.diagrams.net" modified="2024-02-04T13:09:01.297Z" agent="Mozilla/5.0 (Windows NT 10.0; Win64; x64) AppleWebKit/537.36 (KHTML, like Gecko) Chrome/121.0.0.0 Safari/537.36" etag="dHbSQDlCaqGDhpOlk_RK" version="23.1.1" type="github">
  <diagram id="C5RBs43oDa-KdzZeNtuy" name="Page-1">
    <mxGraphModel dx="1687" dy="889" grid="1" gridSize="10" guides="1" tooltips="1" connect="1" arrows="1" fold="1" page="1" pageScale="1" pageWidth="800" pageHeight="600" math="0" shadow="0">
      <root>
        <mxCell id="WIyWlLk6GJQsqaUBKTNV-0" />
        <mxCell id="WIyWlLk6GJQsqaUBKTNV-1" parent="WIyWlLk6GJQsqaUBKTNV-0" />
        <mxCell id="FF-1iVlFn8DtFzpHkf-_-0" value="7.4V LiPo Pil" style="rounded=1;whiteSpace=wrap;html=1;arcSize=0;fillColor=#f8cecc;strokeColor=#b85450;fontFamily=Calibri;fontSize=16;" parent="WIyWlLk6GJQsqaUBKTNV-1" vertex="1">
          <mxGeometry x="10" y="90" width="120" height="30" as="geometry" />
        </mxCell>
        <mxCell id="FF-1iVlFn8DtFzpHkf-_-1" value="7.4V LiPo Pil" style="rounded=1;whiteSpace=wrap;html=1;arcSize=0;fillColor=#f8cecc;strokeColor=#b85450;fontFamily=Calibri;fontSize=16;" parent="WIyWlLk6GJQsqaUBKTNV-1" vertex="1">
          <mxGeometry x="10" y="40" width="120" height="30" as="geometry" />
        </mxCell>
        <mxCell id="FF-1iVlFn8DtFzpHkf-_-3" value="Anahtar" style="rounded=1;whiteSpace=wrap;html=1;arcSize=9;fillColor=#fff2cc;strokeColor=#d6b656;fontFamily=Calibri;fontSize=16;" parent="WIyWlLk6GJQsqaUBKTNV-1" vertex="1">
          <mxGeometry x="160" y="60" width="80" height="40" as="geometry" />
        </mxCell>
        <mxCell id="FF-1iVlFn8DtFzpHkf-_-4" value="5V Regölatör" style="rounded=1;whiteSpace=wrap;html=1;arcSize=12;fillColor=#f5f5f5;fontColor=#333333;strokeColor=#666666;fontFamily=Calibri;fontSize=16;" parent="WIyWlLk6GJQsqaUBKTNV-1" vertex="1">
          <mxGeometry x="160" y="120" width="80" height="40" as="geometry" />
        </mxCell>
        <mxCell id="FF-1iVlFn8DtFzpHkf-_-5" value="STM32F411CEU6" style="rounded=1;whiteSpace=wrap;html=1;fillColor=#dae8fc;strokeColor=#6c8ebf;fontFamily=Calibri;fontSize=16;" parent="WIyWlLk6GJQsqaUBKTNV-1" vertex="1">
          <mxGeometry x="150" y="230" width="200" height="100" as="geometry" />
        </mxCell>
        <mxCell id="FF-1iVlFn8DtFzpHkf-_-7" value="BMP 280" style="rounded=1;whiteSpace=wrap;html=1;arcSize=50;fillColor=#d5e8d4;strokeColor=#82b366;fontFamily=Calibri;fontSize=16;" parent="WIyWlLk6GJQsqaUBKTNV-1" vertex="1">
          <mxGeometry x="150" y="380" width="80" height="40" as="geometry" />
        </mxCell>
        <mxCell id="FF-1iVlFn8DtFzpHkf-_-8" value="BNO055" style="rounded=1;whiteSpace=wrap;html=1;arcSize=50;fillColor=#d5e8d4;strokeColor=#82b366;fontFamily=Calibri;fontSize=16;" parent="WIyWlLk6GJQsqaUBKTNV-1" vertex="1">
          <mxGeometry x="20" y="290" width="80" height="40" as="geometry" />
        </mxCell>
        <mxCell id="FF-1iVlFn8DtFzpHkf-_-9" value="SD CARD" style="rounded=1;whiteSpace=wrap;html=1;arcSize=50;fillColor=#d5e8d4;strokeColor=#82b366;fontFamily=Calibri;fontSize=16;" parent="WIyWlLk6GJQsqaUBKTNV-1" vertex="1">
          <mxGeometry x="250" y="160" width="80" height="40" as="geometry" />
        </mxCell>
        <mxCell id="FF-1iVlFn8DtFzpHkf-_-10" value="AdaFruit GPS" style="rounded=1;whiteSpace=wrap;html=1;arcSize=50;fillColor=#d5e8d4;strokeColor=#82b366;fontFamily=Calibri;fontSize=16;" parent="WIyWlLk6GJQsqaUBKTNV-1" vertex="1">
          <mxGeometry x="250" y="380" width="80" height="40" as="geometry" />
        </mxCell>
        <mxCell id="FF-1iVlFn8DtFzpHkf-_-11" value="" style="endArrow=classic;html=1;rounded=0;fontFamily=Calibri;fontSize=16;" parent="WIyWlLk6GJQsqaUBKTNV-1" edge="1">
          <mxGeometry width="50" height="50" relative="1" as="geometry">
            <mxPoint x="100" y="249.8" as="sourcePoint" />
            <mxPoint x="150" y="249.8" as="targetPoint" />
            <Array as="points">
              <mxPoint x="90" y="250" />
              <mxPoint x="100" y="249.8" />
            </Array>
          </mxGeometry>
        </mxCell>
        <mxCell id="FF-1iVlFn8DtFzpHkf-_-12" value="" style="endArrow=classic;html=1;rounded=0;fontFamily=Calibri;fontSize=16;" parent="WIyWlLk6GJQsqaUBKTNV-1" edge="1">
          <mxGeometry width="50" height="50" relative="1" as="geometry">
            <mxPoint x="100" y="309.8" as="sourcePoint" />
            <mxPoint x="150" y="309.8" as="targetPoint" />
            <Array as="points" />
          </mxGeometry>
        </mxCell>
        <mxCell id="FF-1iVlFn8DtFzpHkf-_-13" value="" style="endArrow=classic;html=1;rounded=0;entryX=0.199;entryY=1.002;entryDx=0;entryDy=0;entryPerimeter=0;fontFamily=Calibri;fontSize=16;" parent="WIyWlLk6GJQsqaUBKTNV-1" target="FF-1iVlFn8DtFzpHkf-_-5" edge="1">
          <mxGeometry width="50" height="50" relative="1" as="geometry">
            <mxPoint x="190" y="380" as="sourcePoint" />
            <mxPoint x="220" y="343" as="targetPoint" />
            <Array as="points">
              <mxPoint x="190" y="380" />
              <mxPoint x="190" y="370" />
              <mxPoint x="190" y="350" />
            </Array>
          </mxGeometry>
        </mxCell>
        <mxCell id="FF-1iVlFn8DtFzpHkf-_-14" value="" style="endArrow=classic;html=1;rounded=0;entryX=0.702;entryY=1.007;entryDx=0;entryDy=0;entryPerimeter=0;fontFamily=Calibri;fontSize=16;" parent="WIyWlLk6GJQsqaUBKTNV-1" target="FF-1iVlFn8DtFzpHkf-_-5" edge="1">
          <mxGeometry width="50" height="50" relative="1" as="geometry">
            <mxPoint x="290" y="380" as="sourcePoint" />
            <mxPoint x="320" y="340" as="targetPoint" />
            <Array as="points">
              <mxPoint x="290" y="380" />
              <mxPoint x="290" y="350" />
            </Array>
          </mxGeometry>
        </mxCell>
        <mxCell id="FF-1iVlFn8DtFzpHkf-_-16" value="" style="endArrow=classic;html=1;rounded=0;exitX=0.5;exitY=1;exitDx=0;exitDy=0;entryX=0.699;entryY=-0.018;entryDx=0;entryDy=0;entryPerimeter=0;fontFamily=Calibri;fontSize=16;" parent="WIyWlLk6GJQsqaUBKTNV-1" target="FF-1iVlFn8DtFzpHkf-_-5" edge="1">
          <mxGeometry width="50" height="50" relative="1" as="geometry">
            <mxPoint x="290" y="200" as="sourcePoint" />
            <mxPoint x="340" y="200" as="targetPoint" />
          </mxGeometry>
        </mxCell>
        <mxCell id="FF-1iVlFn8DtFzpHkf-_-17" value="" style="endArrow=classic;html=1;rounded=0;entryX=0.5;entryY=0;entryDx=0;entryDy=0;exitX=0.375;exitY=1.023;exitDx=0;exitDy=0;exitPerimeter=0;fontFamily=Calibri;fontSize=16;" parent="WIyWlLk6GJQsqaUBKTNV-1" source="FF-1iVlFn8DtFzpHkf-_-4" target="rdZqMUuOVoU_5vOU-umY-52" edge="1">
          <mxGeometry width="50" height="50" relative="1" as="geometry">
            <mxPoint x="240" y="140" as="sourcePoint" />
            <mxPoint x="250" y="180" as="targetPoint" />
            <Array as="points">
              <mxPoint x="190" y="190" />
              <mxPoint x="60" y="190" />
            </Array>
          </mxGeometry>
        </mxCell>
        <mxCell id="FF-1iVlFn8DtFzpHkf-_-18" value="" style="endArrow=classic;html=1;rounded=0;exitX=0.51;exitY=0.999;exitDx=0;exitDy=0;exitPerimeter=0;entryX=0.25;entryY=0;entryDx=0;entryDy=0;fontFamily=Calibri;fontSize=16;" parent="WIyWlLk6GJQsqaUBKTNV-1" source="FF-1iVlFn8DtFzpHkf-_-4" edge="1" target="FF-1iVlFn8DtFzpHkf-_-5">
          <mxGeometry width="50" height="50" relative="1" as="geometry">
            <mxPoint x="280" y="103.19999999999999" as="sourcePoint" />
            <mxPoint x="270" y="210.00000000000003" as="targetPoint" />
          </mxGeometry>
        </mxCell>
        <mxCell id="FF-1iVlFn8DtFzpHkf-_-19" value="" style="endArrow=classic;html=1;rounded=0;exitX=1;exitY=0.5;exitDx=0;exitDy=0;entryX=0;entryY=0.5;entryDx=0;entryDy=0;fontFamily=Calibri;fontSize=16;" parent="WIyWlLk6GJQsqaUBKTNV-1" source="FF-1iVlFn8DtFzpHkf-_-0" target="FF-1iVlFn8DtFzpHkf-_-3" edge="1">
          <mxGeometry width="50" height="50" relative="1" as="geometry">
            <mxPoint x="340" y="230" as="sourcePoint" />
            <mxPoint x="170" y="130" as="targetPoint" />
            <Array as="points">
              <mxPoint x="140" y="105" />
              <mxPoint x="140" y="80" />
            </Array>
          </mxGeometry>
        </mxCell>
        <mxCell id="FF-1iVlFn8DtFzpHkf-_-20" value="" style="endArrow=classic;html=1;rounded=0;exitX=1;exitY=0.5;exitDx=0;exitDy=0;fontFamily=Calibri;fontSize=16;" parent="WIyWlLk6GJQsqaUBKTNV-1" source="FF-1iVlFn8DtFzpHkf-_-1" edge="1">
          <mxGeometry width="50" height="50" relative="1" as="geometry">
            <mxPoint x="140" y="50" as="sourcePoint" />
            <mxPoint x="160" y="80" as="targetPoint" />
            <Array as="points">
              <mxPoint x="140" y="55" />
              <mxPoint x="140" y="80" />
            </Array>
          </mxGeometry>
        </mxCell>
        <mxCell id="FF-1iVlFn8DtFzpHkf-_-21" value="" style="endArrow=classic;html=1;rounded=0;entryX=0.5;entryY=0;entryDx=0;entryDy=0;exitX=0.5;exitY=1;exitDx=0;exitDy=0;fontFamily=Calibri;fontSize=16;" parent="WIyWlLk6GJQsqaUBKTNV-1" edge="1" target="FF-1iVlFn8DtFzpHkf-_-4" source="FF-1iVlFn8DtFzpHkf-_-3">
          <mxGeometry width="50" height="50" relative="1" as="geometry">
            <mxPoint x="240" y="79.89999999999999" as="sourcePoint" />
            <mxPoint x="260" y="80" as="targetPoint" />
          </mxGeometry>
        </mxCell>
        <mxCell id="rdZqMUuOVoU_5vOU-umY-1" value="Birincil Kurtarma Sistemi" style="shape=note;whiteSpace=wrap;html=1;backgroundOutline=1;darkOpacity=0.05;rotation=0;size=10;strokeColor=default;verticalAlign=middle;fontFamily=Calibri;fontSize=16;" vertex="1" parent="WIyWlLk6GJQsqaUBKTNV-1">
          <mxGeometry x="380" y="110" width="120" height="40" as="geometry" />
        </mxCell>
        <mxCell id="rdZqMUuOVoU_5vOU-umY-3" value="Fünye" style="rounded=1;whiteSpace=wrap;html=1;fontFamily=Calibri;fontSize=16;" vertex="1" parent="WIyWlLk6GJQsqaUBKTNV-1">
          <mxGeometry x="410" y="170" width="60" height="30" as="geometry" />
        </mxCell>
        <mxCell id="rdZqMUuOVoU_5vOU-umY-4" value="Röle" style="rounded=1;whiteSpace=wrap;html=1;fontFamily=Calibri;fontSize=16;" vertex="1" parent="WIyWlLk6GJQsqaUBKTNV-1">
          <mxGeometry x="410" y="220" width="60" height="30" as="geometry" />
        </mxCell>
        <mxCell id="rdZqMUuOVoU_5vOU-umY-5" value="" style="endArrow=classic;html=1;rounded=0;entryX=0.5;entryY=1;entryDx=0;entryDy=0;entryPerimeter=0;exitX=0.5;exitY=0;exitDx=0;exitDy=0;fontFamily=Calibri;fontSize=16;" edge="1" parent="WIyWlLk6GJQsqaUBKTNV-1" source="rdZqMUuOVoU_5vOU-umY-3" target="rdZqMUuOVoU_5vOU-umY-1">
          <mxGeometry width="50" height="50" relative="1" as="geometry">
            <mxPoint x="380" y="260" as="sourcePoint" />
            <mxPoint x="430" y="210" as="targetPoint" />
          </mxGeometry>
        </mxCell>
        <mxCell id="rdZqMUuOVoU_5vOU-umY-6" value="" style="endArrow=classic;html=1;rounded=0;entryX=0.5;entryY=1;entryDx=0;entryDy=0;entryPerimeter=0;exitX=0.5;exitY=0;exitDx=0;exitDy=0;fontFamily=Calibri;fontSize=16;" edge="1" parent="WIyWlLk6GJQsqaUBKTNV-1">
          <mxGeometry width="50" height="50" relative="1" as="geometry">
            <mxPoint x="439.83" y="220" as="sourcePoint" />
            <mxPoint x="439.83" y="200" as="targetPoint" />
          </mxGeometry>
        </mxCell>
        <mxCell id="rdZqMUuOVoU_5vOU-umY-7" value="İkincil Kurtarma Sistemi" style="shape=note;whiteSpace=wrap;html=1;backgroundOutline=1;darkOpacity=0.05;rotation=0;size=10;strokeColor=default;verticalAlign=middle;fontFamily=Calibri;fontSize=16;" vertex="1" parent="WIyWlLk6GJQsqaUBKTNV-1">
          <mxGeometry x="380" y="270" width="120" height="40" as="geometry" />
        </mxCell>
        <mxCell id="rdZqMUuOVoU_5vOU-umY-8" value="Fünye" style="rounded=1;whiteSpace=wrap;html=1;fontFamily=Calibri;fontSize=16;" vertex="1" parent="WIyWlLk6GJQsqaUBKTNV-1">
          <mxGeometry x="410" y="330" width="60" height="30" as="geometry" />
        </mxCell>
        <mxCell id="rdZqMUuOVoU_5vOU-umY-9" value="Röle" style="rounded=1;whiteSpace=wrap;html=1;fontFamily=Calibri;fontSize=16;" vertex="1" parent="WIyWlLk6GJQsqaUBKTNV-1">
          <mxGeometry x="410" y="380" width="60" height="30" as="geometry" />
        </mxCell>
        <mxCell id="rdZqMUuOVoU_5vOU-umY-10" value="" style="endArrow=classic;html=1;rounded=0;entryX=0.5;entryY=1;entryDx=0;entryDy=0;entryPerimeter=0;exitX=0.5;exitY=0;exitDx=0;exitDy=0;fontFamily=Calibri;fontSize=16;" edge="1" parent="WIyWlLk6GJQsqaUBKTNV-1" source="rdZqMUuOVoU_5vOU-umY-8" target="rdZqMUuOVoU_5vOU-umY-7">
          <mxGeometry width="50" height="50" relative="1" as="geometry">
            <mxPoint x="380" y="420" as="sourcePoint" />
            <mxPoint x="430" y="370" as="targetPoint" />
          </mxGeometry>
        </mxCell>
        <mxCell id="rdZqMUuOVoU_5vOU-umY-11" value="" style="endArrow=classic;html=1;rounded=0;entryX=0.5;entryY=1;entryDx=0;entryDy=0;entryPerimeter=0;exitX=0.5;exitY=0;exitDx=0;exitDy=0;fontFamily=Calibri;fontSize=16;" edge="1" parent="WIyWlLk6GJQsqaUBKTNV-1">
          <mxGeometry width="50" height="50" relative="1" as="geometry">
            <mxPoint x="439.83" y="380" as="sourcePoint" />
            <mxPoint x="439.83" y="360" as="targetPoint" />
          </mxGeometry>
        </mxCell>
        <mxCell id="rdZqMUuOVoU_5vOU-umY-12" value="" style="endArrow=classic;html=1;rounded=0;exitX=1.004;exitY=0.605;exitDx=0;exitDy=0;exitPerimeter=0;entryX=0;entryY=0.5;entryDx=0;entryDy=0;fontFamily=Calibri;fontSize=16;" edge="1" parent="WIyWlLk6GJQsqaUBKTNV-1" source="FF-1iVlFn8DtFzpHkf-_-5" target="rdZqMUuOVoU_5vOU-umY-9">
          <mxGeometry width="50" height="50" relative="1" as="geometry">
            <mxPoint x="360" y="290" as="sourcePoint" />
            <mxPoint x="410" y="240" as="targetPoint" />
            <Array as="points">
              <mxPoint x="360" y="290" />
              <mxPoint x="360" y="395" />
            </Array>
          </mxGeometry>
        </mxCell>
        <mxCell id="rdZqMUuOVoU_5vOU-umY-13" value="" style="endArrow=classic;html=1;rounded=0;entryX=0;entryY=0.5;entryDx=0;entryDy=0;fontFamily=Calibri;fontSize=16;" edge="1" parent="WIyWlLk6GJQsqaUBKTNV-1" target="rdZqMUuOVoU_5vOU-umY-4">
          <mxGeometry width="50" height="50" relative="1" as="geometry">
            <mxPoint x="350" y="270" as="sourcePoint" />
            <mxPoint x="400" y="230" as="targetPoint" />
            <Array as="points">
              <mxPoint x="360" y="270" />
              <mxPoint x="360" y="235" />
            </Array>
          </mxGeometry>
        </mxCell>
        <mxCell id="rdZqMUuOVoU_5vOU-umY-14" value="3.7V LiPo Pil" style="rounded=1;whiteSpace=wrap;html=1;arcSize=0;fillColor=#f8cecc;strokeColor=#b85450;fontFamily=Calibri;fontSize=16;" vertex="1" parent="WIyWlLk6GJQsqaUBKTNV-1">
          <mxGeometry x="680" y="45" width="120" height="30" as="geometry" />
        </mxCell>
        <mxCell id="rdZqMUuOVoU_5vOU-umY-15" value="Anahtar" style="rounded=1;whiteSpace=wrap;html=1;arcSize=9;fillColor=#fff2cc;strokeColor=#d6b656;fontFamily=Calibri;fontSize=16;" vertex="1" parent="WIyWlLk6GJQsqaUBKTNV-1">
          <mxGeometry x="570" y="40" width="80" height="40" as="geometry" />
        </mxCell>
        <mxCell id="rdZqMUuOVoU_5vOU-umY-16" value="ENTACORE AIM3" style="rounded=1;whiteSpace=wrap;html=1;fillColor=#dae8fc;strokeColor=#6c8ebf;fontFamily=Calibri;fontSize=16;" vertex="1" parent="WIyWlLk6GJQsqaUBKTNV-1">
          <mxGeometry x="530" y="160" width="160" height="80" as="geometry" />
        </mxCell>
        <mxCell id="rdZqMUuOVoU_5vOU-umY-20" value="" style="endArrow=classic;html=1;rounded=0;entryX=0.5;entryY=0;entryDx=0;entryDy=0;exitX=0.5;exitY=1;exitDx=0;exitDy=0;fontFamily=Calibri;fontSize=16;" edge="1" parent="WIyWlLk6GJQsqaUBKTNV-1" source="rdZqMUuOVoU_5vOU-umY-15" target="rdZqMUuOVoU_5vOU-umY-16">
          <mxGeometry width="50" height="50" relative="1" as="geometry">
            <mxPoint x="430" y="150" as="sourcePoint" />
            <mxPoint x="480" y="100" as="targetPoint" />
          </mxGeometry>
        </mxCell>
        <mxCell id="rdZqMUuOVoU_5vOU-umY-21" value="" style="endArrow=classic;html=1;rounded=0;entryX=1;entryY=0.5;entryDx=0;entryDy=0;fontFamily=Calibri;fontSize=16;" edge="1" parent="WIyWlLk6GJQsqaUBKTNV-1" source="rdZqMUuOVoU_5vOU-umY-14" target="rdZqMUuOVoU_5vOU-umY-15">
          <mxGeometry width="50" height="50" relative="1" as="geometry">
            <mxPoint x="430" y="150" as="sourcePoint" />
            <mxPoint x="480" y="100" as="targetPoint" />
          </mxGeometry>
        </mxCell>
        <mxCell id="rdZqMUuOVoU_5vOU-umY-22" value="İvme/Gyro Sensörü" style="rounded=1;whiteSpace=wrap;html=1;arcSize=50;fillColor=#d5e8d4;strokeColor=#82b366;fontFamily=Calibri;fontSize=16;" vertex="1" parent="WIyWlLk6GJQsqaUBKTNV-1">
          <mxGeometry x="720" y="150" width="80" height="40" as="geometry" />
        </mxCell>
        <mxCell id="rdZqMUuOVoU_5vOU-umY-23" value="Basınç Sensörü" style="rounded=1;whiteSpace=wrap;html=1;arcSize=50;fillColor=#d5e8d4;strokeColor=#82b366;fontFamily=Calibri;fontSize=16;" vertex="1" parent="WIyWlLk6GJQsqaUBKTNV-1">
          <mxGeometry x="720" y="210" width="80" height="40" as="geometry" />
        </mxCell>
        <mxCell id="rdZqMUuOVoU_5vOU-umY-24" value="" style="endArrow=classic;html=1;rounded=0;exitX=0;exitY=0.5;exitDx=0;exitDy=0;entryX=1.006;entryY=0.611;entryDx=0;entryDy=0;entryPerimeter=0;fontFamily=Calibri;fontSize=16;" edge="1" parent="WIyWlLk6GJQsqaUBKTNV-1" source="rdZqMUuOVoU_5vOU-umY-23">
          <mxGeometry width="50" height="50" relative="1" as="geometry">
            <mxPoint x="719.04" y="231.12" as="sourcePoint" />
            <mxPoint x="689.9999999999999" y="210" as="targetPoint" />
            <Array as="points">
              <mxPoint x="710" y="230" />
              <mxPoint x="710" y="210" />
            </Array>
          </mxGeometry>
        </mxCell>
        <mxCell id="rdZqMUuOVoU_5vOU-umY-26" value="" style="endArrow=classic;html=1;rounded=0;entryX=1.003;entryY=0.37;entryDx=0;entryDy=0;entryPerimeter=0;exitX=0;exitY=0.5;exitDx=0;exitDy=0;fontFamily=Calibri;fontSize=16;" edge="1" parent="WIyWlLk6GJQsqaUBKTNV-1" source="rdZqMUuOVoU_5vOU-umY-22" target="rdZqMUuOVoU_5vOU-umY-16">
          <mxGeometry width="50" height="50" relative="1" as="geometry">
            <mxPoint x="650" y="190" as="sourcePoint" />
            <mxPoint x="700" y="140" as="targetPoint" />
            <Array as="points">
              <mxPoint x="710" y="170" />
              <mxPoint x="710" y="190" />
            </Array>
          </mxGeometry>
        </mxCell>
        <mxCell id="rdZqMUuOVoU_5vOU-umY-27" value="" style="endArrow=classic;html=1;rounded=0;exitX=0.004;exitY=0.313;exitDx=0;exitDy=0;exitPerimeter=0;" edge="1" parent="WIyWlLk6GJQsqaUBKTNV-1" source="rdZqMUuOVoU_5vOU-umY-16">
          <mxGeometry width="50" height="50" relative="1" as="geometry">
            <mxPoint x="530" y="190" as="sourcePoint" />
            <mxPoint x="470" y="185" as="targetPoint" />
            <Array as="points">
              <mxPoint x="510" y="185" />
            </Array>
          </mxGeometry>
        </mxCell>
        <mxCell id="rdZqMUuOVoU_5vOU-umY-28" value="" style="endArrow=classic;html=1;rounded=0;exitX=0.002;exitY=0.623;exitDx=0;exitDy=0;exitPerimeter=0;entryX=1;entryY=0.5;entryDx=0;entryDy=0;" edge="1" parent="WIyWlLk6GJQsqaUBKTNV-1" source="rdZqMUuOVoU_5vOU-umY-16" target="rdZqMUuOVoU_5vOU-umY-8">
          <mxGeometry width="50" height="50" relative="1" as="geometry">
            <mxPoint x="490" y="230" as="sourcePoint" />
            <mxPoint x="480" y="350" as="targetPoint" />
            <Array as="points">
              <mxPoint x="510" y="210" />
              <mxPoint x="510" y="345" />
            </Array>
          </mxGeometry>
        </mxCell>
        <mxCell id="rdZqMUuOVoU_5vOU-umY-29" value="ENTACORE AIM3" style="rounded=1;whiteSpace=wrap;html=1;fillColor=#dae8fc;strokeColor=#6c8ebf;fontFamily=Calibri;fontSize=16;" vertex="1" parent="WIyWlLk6GJQsqaUBKTNV-1">
          <mxGeometry x="250" y="520" width="140" height="40" as="geometry" />
        </mxCell>
        <mxCell id="rdZqMUuOVoU_5vOU-umY-30" value="EBYTE E220-900T30S" style="rounded=1;whiteSpace=wrap;html=1;arcSize=25;fillColor=#e1d5e7;strokeColor=#9673a6;fontFamily=Calibri;fontSize=15;" vertex="1" parent="WIyWlLk6GJQsqaUBKTNV-1">
          <mxGeometry x="150" y="520" width="80" height="40" as="geometry" />
        </mxCell>
        <mxCell id="rdZqMUuOVoU_5vOU-umY-31" value="EBYTE E220-900T30S" style="rounded=1;whiteSpace=wrap;html=1;arcSize=25;fillColor=#e1d5e7;strokeColor=#9673a6;fontFamily=Calibri;fontSize=15;" vertex="1" parent="WIyWlLk6GJQsqaUBKTNV-1">
          <mxGeometry x="410" y="520" width="80" height="40" as="geometry" />
        </mxCell>
        <mxCell id="rdZqMUuOVoU_5vOU-umY-33" value="7.4V LiPo Pil" style="rounded=1;whiteSpace=wrap;html=1;arcSize=0;fillColor=#f8cecc;strokeColor=#b85450;fontFamily=Calibri;fontSize=16;" vertex="1" parent="WIyWlLk6GJQsqaUBKTNV-1">
          <mxGeometry x="680" y="365" width="120" height="30" as="geometry" />
        </mxCell>
        <mxCell id="rdZqMUuOVoU_5vOU-umY-43" value="" style="edgeStyle=orthogonalEdgeStyle;rounded=0;orthogonalLoop=1;jettySize=auto;html=1;" edge="1" parent="WIyWlLk6GJQsqaUBKTNV-1" source="rdZqMUuOVoU_5vOU-umY-34">
          <mxGeometry relative="1" as="geometry">
            <mxPoint x="605" y="460" as="targetPoint" />
          </mxGeometry>
        </mxCell>
        <mxCell id="rdZqMUuOVoU_5vOU-umY-34" value="Anahtar" style="rounded=1;whiteSpace=wrap;html=1;arcSize=9;fillColor=#fff2cc;strokeColor=#d6b656;fontFamily=Calibri;fontSize=16;" vertex="1" parent="WIyWlLk6GJQsqaUBKTNV-1">
          <mxGeometry x="570" y="360" width="80" height="40" as="geometry" />
        </mxCell>
        <mxCell id="rdZqMUuOVoU_5vOU-umY-35" value="5V Regölatör" style="rounded=1;whiteSpace=wrap;html=1;arcSize=12;fillColor=#f5f5f5;fontColor=#333333;strokeColor=#666666;fontFamily=Calibri;fontSize=16;" vertex="1" parent="WIyWlLk6GJQsqaUBKTNV-1">
          <mxGeometry x="570" y="410" width="80" height="40" as="geometry" />
        </mxCell>
        <mxCell id="rdZqMUuOVoU_5vOU-umY-36" value="EBYTE E220-900T30S" style="rounded=1;whiteSpace=wrap;html=1;arcSize=25;fillColor=#e1d5e7;strokeColor=#9673a6;fontFamily=Calibri;fontSize=15;" vertex="1" parent="WIyWlLk6GJQsqaUBKTNV-1">
          <mxGeometry x="600" y="520" width="80" height="40" as="geometry" />
        </mxCell>
        <mxCell id="rdZqMUuOVoU_5vOU-umY-37" value="ENTACORE AIM3" style="rounded=1;whiteSpace=wrap;html=1;fillColor=#dae8fc;strokeColor=#6c8ebf;fontFamily=Calibri;fontSize=16;" vertex="1" parent="WIyWlLk6GJQsqaUBKTNV-1">
          <mxGeometry x="520" y="460" width="150" height="40" as="geometry" />
        </mxCell>
        <mxCell id="rdZqMUuOVoU_5vOU-umY-38" value="SD CARD" style="rounded=1;whiteSpace=wrap;html=1;arcSize=50;fillColor=#d5e8d4;strokeColor=#82b366;fontFamily=Calibri;fontSize=16;" vertex="1" parent="WIyWlLk6GJQsqaUBKTNV-1">
          <mxGeometry x="720" y="410" width="80" height="40" as="geometry" />
        </mxCell>
        <mxCell id="rdZqMUuOVoU_5vOU-umY-39" value="AdaFruit GPS" style="rounded=1;whiteSpace=wrap;html=1;arcSize=50;fillColor=#d5e8d4;strokeColor=#82b366;fontFamily=Calibri;fontSize=16;" vertex="1" parent="WIyWlLk6GJQsqaUBKTNV-1">
          <mxGeometry x="720" y="460" width="80" height="40" as="geometry" />
        </mxCell>
        <mxCell id="rdZqMUuOVoU_5vOU-umY-40" value="BMP 280" style="rounded=1;whiteSpace=wrap;html=1;arcSize=50;fillColor=#d5e8d4;strokeColor=#82b366;fontFamily=Calibri;fontSize=16;" vertex="1" parent="WIyWlLk6GJQsqaUBKTNV-1">
          <mxGeometry x="720" y="510" width="80" height="40" as="geometry" />
        </mxCell>
        <mxCell id="rdZqMUuOVoU_5vOU-umY-41" value="" style="endArrow=classic;html=1;rounded=0;exitX=0;exitY=0.5;exitDx=0;exitDy=0;entryX=1;entryY=0.5;entryDx=0;entryDy=0;" edge="1" parent="WIyWlLk6GJQsqaUBKTNV-1" source="rdZqMUuOVoU_5vOU-umY-33" target="rdZqMUuOVoU_5vOU-umY-34">
          <mxGeometry width="50" height="50" relative="1" as="geometry">
            <mxPoint x="500" y="420" as="sourcePoint" />
            <mxPoint x="550" y="370" as="targetPoint" />
            <Array as="points">
              <mxPoint x="670" y="380" />
            </Array>
          </mxGeometry>
        </mxCell>
        <mxCell id="rdZqMUuOVoU_5vOU-umY-42" value="" style="endArrow=classic;html=1;rounded=0;entryX=0.5;entryY=0;entryDx=0;entryDy=0;exitX=0.5;exitY=1;exitDx=0;exitDy=0;" edge="1" parent="WIyWlLk6GJQsqaUBKTNV-1" source="rdZqMUuOVoU_5vOU-umY-34" target="rdZqMUuOVoU_5vOU-umY-35">
          <mxGeometry width="50" height="50" relative="1" as="geometry">
            <mxPoint x="590" y="460" as="sourcePoint" />
            <mxPoint x="640" y="410" as="targetPoint" />
          </mxGeometry>
        </mxCell>
        <mxCell id="rdZqMUuOVoU_5vOU-umY-44" value="" style="endArrow=classic;html=1;rounded=0;exitX=0.5;exitY=1;exitDx=0;exitDy=0;entryX=0.5;entryY=0;entryDx=0;entryDy=0;" edge="1" parent="WIyWlLk6GJQsqaUBKTNV-1" target="rdZqMUuOVoU_5vOU-umY-36">
          <mxGeometry width="50" height="50" relative="1" as="geometry">
            <mxPoint x="605" y="500" as="sourcePoint" />
            <mxPoint x="600" y="500" as="targetPoint" />
            <Array as="points">
              <mxPoint x="605" y="510" />
              <mxPoint x="640" y="510" />
            </Array>
          </mxGeometry>
        </mxCell>
        <mxCell id="rdZqMUuOVoU_5vOU-umY-45" value="" style="endArrow=classic;html=1;rounded=0;exitX=0;exitY=0.5;exitDx=0;exitDy=0;entryX=1;entryY=0.25;entryDx=0;entryDy=0;" edge="1" parent="WIyWlLk6GJQsqaUBKTNV-1" source="rdZqMUuOVoU_5vOU-umY-38">
          <mxGeometry width="50" height="50" relative="1" as="geometry">
            <mxPoint x="660" y="445" as="sourcePoint" />
            <mxPoint x="680" y="470" as="targetPoint" />
            <Array as="points">
              <mxPoint x="700" y="430" />
              <mxPoint x="700" y="470" />
            </Array>
          </mxGeometry>
        </mxCell>
        <mxCell id="rdZqMUuOVoU_5vOU-umY-46" value="" style="endArrow=classic;html=1;rounded=0;exitX=0;exitY=0.5;exitDx=0;exitDy=0;entryX=1.02;entryY=0.25;entryDx=0;entryDy=0;entryPerimeter=0;" edge="1" parent="WIyWlLk6GJQsqaUBKTNV-1" source="rdZqMUuOVoU_5vOU-umY-39">
          <mxGeometry width="50" height="50" relative="1" as="geometry">
            <mxPoint x="717" y="430" as="sourcePoint" />
            <mxPoint x="680" y="480" as="targetPoint" />
          </mxGeometry>
        </mxCell>
        <mxCell id="rdZqMUuOVoU_5vOU-umY-47" value="" style="endArrow=classic;html=1;rounded=0;exitX=0;exitY=0.5;exitDx=0;exitDy=0;entryX=1;entryY=0.75;entryDx=0;entryDy=0;" edge="1" parent="WIyWlLk6GJQsqaUBKTNV-1" source="rdZqMUuOVoU_5vOU-umY-40">
          <mxGeometry width="50" height="50" relative="1" as="geometry">
            <mxPoint x="720" y="520" as="sourcePoint" />
            <mxPoint x="680" y="490" as="targetPoint" />
            <Array as="points">
              <mxPoint x="700" y="530" />
              <mxPoint x="700" y="490" />
            </Array>
          </mxGeometry>
        </mxCell>
        <mxCell id="rdZqMUuOVoU_5vOU-umY-52" value="EBYTE E220-900T30S" style="rounded=1;whiteSpace=wrap;html=1;arcSize=25;fillColor=#e1d5e7;strokeColor=#9673a6;fontFamily=Calibri;fontSize=15;" vertex="1" parent="WIyWlLk6GJQsqaUBKTNV-1">
          <mxGeometry x="20" y="230" width="80" height="40" as="geometry" />
        </mxCell>
        <mxCell id="rdZqMUuOVoU_5vOU-umY-54" value="" style="endArrow=classic;html=1;rounded=0;exitX=0;exitY=0.5;exitDx=0;exitDy=0;entryX=0;entryY=0.5;entryDx=0;entryDy=0;" edge="1" parent="WIyWlLk6GJQsqaUBKTNV-1" source="rdZqMUuOVoU_5vOU-umY-52" target="rdZqMUuOVoU_5vOU-umY-30">
          <mxGeometry width="50" height="50" relative="1" as="geometry">
            <mxPoint x="170" y="310" as="sourcePoint" />
            <mxPoint x="10" y="540" as="targetPoint" />
            <Array as="points">
              <mxPoint x="10" y="250" />
              <mxPoint x="10" y="540" />
            </Array>
          </mxGeometry>
        </mxCell>
        <mxCell id="rdZqMUuOVoU_5vOU-umY-57" value="" style="endArrow=classic;html=1;rounded=0;exitX=0;exitY=0.5;exitDx=0;exitDy=0;entryX=1;entryY=0.5;entryDx=0;entryDy=0;" edge="1" parent="WIyWlLk6GJQsqaUBKTNV-1" source="rdZqMUuOVoU_5vOU-umY-36" target="rdZqMUuOVoU_5vOU-umY-31">
          <mxGeometry width="50" height="50" relative="1" as="geometry">
            <mxPoint x="530" y="550" as="sourcePoint" />
            <mxPoint x="580" y="500" as="targetPoint" />
            <Array as="points">
              <mxPoint x="560" y="540" />
            </Array>
          </mxGeometry>
        </mxCell>
        <mxCell id="rdZqMUuOVoU_5vOU-umY-58" value="" style="endArrow=classic;html=1;rounded=0;exitX=1;exitY=0.5;exitDx=0;exitDy=0;entryX=0;entryY=0.5;entryDx=0;entryDy=0;" edge="1" parent="WIyWlLk6GJQsqaUBKTNV-1" source="rdZqMUuOVoU_5vOU-umY-30" target="rdZqMUuOVoU_5vOU-umY-29">
          <mxGeometry width="50" height="50" relative="1" as="geometry">
            <mxPoint x="380" y="530" as="sourcePoint" />
            <mxPoint x="430" y="480" as="targetPoint" />
          </mxGeometry>
        </mxCell>
        <mxCell id="rdZqMUuOVoU_5vOU-umY-59" value="" style="endArrow=classic;html=1;rounded=0;exitX=0;exitY=0.5;exitDx=0;exitDy=0;entryX=1;entryY=0.5;entryDx=0;entryDy=0;" edge="1" parent="WIyWlLk6GJQsqaUBKTNV-1" source="rdZqMUuOVoU_5vOU-umY-31" target="rdZqMUuOVoU_5vOU-umY-29">
          <mxGeometry width="50" height="50" relative="1" as="geometry">
            <mxPoint x="390" y="539.8" as="sourcePoint" />
            <mxPoint x="410" y="539.8" as="targetPoint" />
          </mxGeometry>
        </mxCell>
        <mxCell id="rdZqMUuOVoU_5vOU-umY-60" value="Birincil Uçuş Bilgisayarı" style="rounded=1;whiteSpace=wrap;html=1;fontSize=14;fontFamily=Calibri;" vertex="1" parent="WIyWlLk6GJQsqaUBKTNV-1">
          <mxGeometry x="10" y="10" width="350" height="20" as="geometry" />
        </mxCell>
        <mxCell id="rdZqMUuOVoU_5vOU-umY-61" value="İkincil Uçuş Bilgisayarı" style="rounded=1;whiteSpace=wrap;html=1;fontSize=14;fontFamily=Calibri;" vertex="1" parent="WIyWlLk6GJQsqaUBKTNV-1">
          <mxGeometry x="530" y="10" width="270" height="20" as="geometry" />
        </mxCell>
        <mxCell id="rdZqMUuOVoU_5vOU-umY-63" value="Payload" style="rounded=1;whiteSpace=wrap;html=1;fontSize=14;fontFamily=Calibri;" vertex="1" parent="WIyWlLk6GJQsqaUBKTNV-1">
          <mxGeometry x="520" y="330" width="270" height="20" as="geometry" />
        </mxCell>
        <mxCell id="rdZqMUuOVoU_5vOU-umY-64" value="Yer İstasyonu" style="rounded=1;whiteSpace=wrap;html=1;fontSize=14;fontFamily=Calibri;" vertex="1" parent="WIyWlLk6GJQsqaUBKTNV-1">
          <mxGeometry x="150" y="490" width="340" height="20" as="geometry" />
        </mxCell>
        <mxCell id="rdZqMUuOVoU_5vOU-umY-65" value="" style="rounded=0;whiteSpace=wrap;html=1;dashed=1;fillColor=none;" vertex="1" parent="WIyWlLk6GJQsqaUBKTNV-1">
          <mxGeometry width="370" height="430" as="geometry" />
        </mxCell>
        <mxCell id="rdZqMUuOVoU_5vOU-umY-67" value="" style="rounded=0;whiteSpace=wrap;html=1;dashed=1;fillColor=none;" vertex="1" parent="WIyWlLk6GJQsqaUBKTNV-1">
          <mxGeometry x="520" width="290" height="260" as="geometry" />
        </mxCell>
        <mxCell id="rdZqMUuOVoU_5vOU-umY-68" value="" style="rounded=0;whiteSpace=wrap;html=1;dashed=1;fillColor=none;" vertex="1" parent="WIyWlLk6GJQsqaUBKTNV-1">
          <mxGeometry x="520" y="320" width="290" height="250" as="geometry" />
        </mxCell>
        <mxCell id="rdZqMUuOVoU_5vOU-umY-69" value="" style="rounded=0;whiteSpace=wrap;html=1;dashed=1;fillColor=none;" vertex="1" parent="WIyWlLk6GJQsqaUBKTNV-1">
          <mxGeometry x="140" y="480" width="360" height="90" as="geometry" />
        </mxCell>
        <mxCell id="rdZqMUuOVoU_5vOU-umY-70" style="edgeStyle=orthogonalEdgeStyle;rounded=0;orthogonalLoop=1;jettySize=auto;html=1;exitX=0.5;exitY=1;exitDx=0;exitDy=0;" edge="1" parent="WIyWlLk6GJQsqaUBKTNV-1" source="rdZqMUuOVoU_5vOU-umY-69" target="rdZqMUuOVoU_5vOU-umY-69">
          <mxGeometry relative="1" as="geometry" />
        </mxCell>
      </root>
    </mxGraphModel>
  </diagram>
</mxfile>
